<?xml version="1.0" encoding="UTF-8"?>
<!DOCTYPE svg PUBLIC "-//W3C//DTD SVG 1.1//EN" "http://www.w3.org/Graphics/SVG/1.1/DTD/svg11.dtd">
<!-- Creator: CorelDRAW 2017 -->
<svg xmlns="http://www.w3.org/2000/svg" xml:space="preserve" width="6.35mm" height="6.35mm" version="1.1" style="shape-rendering:geometricPrecision; text-rendering:geometricPrecision; image-rendering:optimizeQuality; fill-rule:evenodd; clip-rule:evenodd"
viewBox="0 0 635 635"
 xmlns:xlink="http://www.w3.org/1999/xlink">
 <defs>
  <style type="text/css">
   <![CDATA[
    .fil0 {fill:#0E89C6}
    .fil1 {fill:white;fill-rule:nonzero}
   ]]>
  </style>
 </defs>
 <g id="Layer_x0020_1">
  <metadata id="CorelCorpID_0Corel-Layer"/>
  <g id="_2097911499488">
   <path class="fil0" d="M185.21 0l211.67 0c102.26,0 185.2,82.94 185.2,185.21l0.01 194.25c-14.22,-21.4 -38.54,-35.5 -66.15,-35.5 -43.84,0 -79.38,35.54 -79.38,79.38l0 13.22 -13.23 0c-43.84,0 -79.38,35.54 -79.38,79.38 0,27.6 14.09,51.91 35.47,66.13l-194.21 0.01c-102.26,-0.01 -185.2,-82.95 -185.2,-185.22l-0.01 -211.65c0.01,-102.27 82.95,-185.21 185.22,-185.21l-0.01 0z" data-name="Rounded Rectangle 1"/>
   <path class="fil1" d="M378.04 422.91c-0.69,2.7 -1.61,4.88 -2.81,6.48 -1.15,1.61 -2.92,2.87 -5.27,3.67 -2.35,0.86 -5.39,1.43 -9.06,1.72 -3.73,0.29 -8.43,0.4 -14.1,0.4 -6.37,0 -11.53,-0.11 -15.37,-0.4 -3.9,-0.29 -6.93,-0.86 -9.17,-1.72 -2.24,-0.8 -3.84,-2.06 -4.87,-3.67 -0.98,-1.6 -1.78,-3.78 -2.35,-6.48l-34.8 -137.81 -0.34 0 -32.91 137.81c-0.57,2.58 -1.32,4.7 -2.35,6.31 -0.97,1.61 -2.58,2.87 -4.76,3.78 -2.18,0.92 -5.16,1.49 -8.88,1.78 -3.79,0.29 -8.72,0.4 -14.85,0.4 -6.54,0 -11.7,-0.11 -15.54,-0.4 -3.84,-0.29 -6.93,-0.86 -9.17,-1.72 -2.23,-0.8 -3.84,-2.06 -4.87,-3.67 -0.98,-1.6 -1.84,-3.78 -2.47,-6.48l-49.36 -189.69c-1.03,-4.07 -1.54,-7.22 -1.66,-9.52 -0.11,-2.29 0.52,-4.07 1.89,-5.27 1.44,-1.26 3.73,-2.01 6.88,-2.29 3.21,-0.29 7.63,-0.4 13.3,-0.4 5.28,0 9.4,0.05 12.5,0.22 3.1,0.18 5.39,0.58 6.94,1.21 1.54,0.63 2.63,1.49 3.21,2.69 0.51,1.15 0.97,2.81 1.32,4.93l38.18 166.54 0.17 0 39.61 -165.33c0.46,-2.12 1.03,-3.9 1.78,-5.22 0.69,-1.38 1.95,-2.41 3.67,-3.1 1.72,-0.74 4.12,-1.26 7.16,-1.54 2.98,-0.29 7.05,-0.4 12.1,-0.4 5.39,0 9.63,0.11 12.84,0.34 3.21,0.23 5.67,0.69 7.39,1.43 1.72,0.75 2.99,1.78 3.79,3.1 0.8,1.32 1.37,3.15 1.83,5.39l41.05 165.33 0.34 0 37.84 -166.02c0.34,-1.78 0.8,-3.33 1.32,-4.64 0.57,-1.27 1.66,-2.3 3.21,-2.99 1.6,-0.74 3.84,-1.26 6.76,-1.54 2.92,-0.29 6.99,-0.4 12.27,-0.4 4.99,0 8.83,0.11 11.58,0.4 2.75,0.28 4.7,1.03 5.96,2.29 1.2,1.2 1.78,3.04 1.61,5.45 -0.18,2.4 -0.75,5.67 -1.78,9.86l-49.76 189.17z"/>
   <path class="fil1" d="M608.54 489.48c14.61,0 26.46,11.85 26.46,26.46 0,14.61 -11.85,26.46 -26.46,26.46l-66.14 0 0 66.14c0,14.61 -11.85,26.46 -26.46,26.46 -14.61,0 -26.46,-11.85 -26.46,-26.46l0 -66.14 -66.15 0c-14.61,0 -26.46,-11.85 -26.46,-26.46 0,-14.61 11.85,-26.46 26.46,-26.46l66.15 0 0 -66.14c0,-14.61 11.85,-26.46 26.46,-26.46 14.61,0 26.46,11.85 26.46,26.46l0 66.14 66.14 0z"/>
  </g>
 </g>
</svg>
