<svg xmlns="http://www.w3.org/2000/svg" width="43.604" height="31.638" viewBox="0 0 43.604 31.638">
  <g id="Zoom" transform="translate(-1009.733 -660.421)">
    <g id="Layer_2" data-name="Layer 2" transform="translate(1023 668)">
      <g id="Layer_1" data-name="Layer 1" transform="translate(1 1)">
        <circle id="Ellipse_8" data-name="Ellipse 8" cx="6.892" cy="6.892" r="6.892" transform="translate(0 0)" fill="none" stroke="#9a9ca6" stroke-miterlimit="10" stroke-width="1"/>
        <line id="Line_22" data-name="Line 22" x2="3.573" y2="3.573" transform="translate(11.597 11.927)" fill="none" stroke="#9a9ca6" stroke-miterlimit="10" stroke-width="1"/>
      </g>
    </g>
    <path id="Path_1669" data-name="Path 1669" d="M-4721.167,896.921h-7.01a1.509,1.509,0,0,0-1.577,1.577v27.484a1.4,1.4,0,0,0,1.577,1.577h7.01" transform="translate(5740 -236)" fill="none" stroke="#c5c7d0" stroke-width="1"/>
    <path id="Path_1670" data-name="Path 1670" d="M-4721.167,896.921h-7.01a1.509,1.509,0,0,0-1.577,1.577v27.484a1.4,1.4,0,0,0,1.577,1.577h7.01" transform="translate(-3676.93 1588.479) rotate(180)" fill="none" stroke="#c5c7d0" stroke-width="1"/>
  </g>
</svg>
